<svg xmlns="http://www.w3.org/2000/svg" viewBox="0 0 500 500"><g id="freepik--background-simple--inject-257"><path d="M410.88,135.8C381.33,102.25,335.15,84.39,291.46,80a346.63,346.63,0,0,0-38.53-1.63c-126.85,1.35-164,56-155.87,82.32s31,42.51-2,78.94S24.86,330.69,43.76,385.35s97.16,97.16,210.52,90.41,186.9-7.42,210.52-58-28-85.32-35.27-128.69c-4.49-26.89,7.05-54,7.89-80.81C438.33,179.26,427.87,155.09,410.88,135.8Z" style="fill:#407BFF"></path><path d="M410.88,135.8C381.33,102.25,335.15,84.39,291.46,80a346.63,346.63,0,0,0-38.53-1.63c-126.85,1.35-164,56-155.87,82.32s31,42.51-2,78.94S24.86,330.69,43.76,385.35s97.16,97.16,210.52,90.41,186.9-7.42,210.52-58-28-85.32-35.27-128.69c-4.49-26.89,7.05-54,7.89-80.81C438.33,179.26,427.87,155.09,410.88,135.8Z" style="fill:#fff;opacity:0.7000000000000001"></path></g><g id="freepik--Floor--inject-257"><line x1="23.51" y1="461.15" x2="472.22" y2="461.15" style="fill:none;stroke:#263238;stroke-miterlimit:10"></line></g><g id="freepik--Device--inject-257"><rect x="158.04" y="21.07" width="194.04" height="411.91" rx="25.7" style="fill:#263238;stroke:#263238;stroke-miterlimit:10"></rect><path d="M345.32,49.73V404.32a22.25,22.25,0,0,1-22.25,22.25h-136a21.61,21.61,0,0,1-3-.21,22.25,22.25,0,0,1-19.23-22V49.73a22.26,22.26,0,0,1,22.26-22.25H191c12.23,0,24.49.23,36.71,0,0,.08-.08.23-.05.35,3.34-.52,8.54.92,11,3.33,3.84,3.84,8.33,9.09,14.19,9.7,6.13.63,11-4.33,15-8.27,4.48-4.43,10.46-5.1,16.52-5.1h38.76A22.25,22.25,0,0,1,345.32,49.73Z" style="fill:#407BFF"></path><path d="M345.32,49.73V94.94c-19.45,23.43-66.81,53.6-120.66,81.77-29.15,15.26-47.93,29.64-59.86,41.06V108.51q2.52-3.57,5.46-7.29c23.56-29.73,80.7-48.8,121-73.74h31.79A22.25,22.25,0,0,1,345.32,49.73Z" style="fill:#fff;opacity:0.30000000000000004"></path><path d="M345.32,181.42V319.56c-19.45,23.43-66.81,53.6-120.66,81.77a311.72,311.72,0,0,0-40.63,25,22.25,22.25,0,0,1-19.23-22V333.13q2.52-3.57,5.46-7.29c33-41.67,132-62.41,158.19-107.71C335.48,206,341.28,192.17,345.32,181.42Z" style="fill:#fff;opacity:0.30000000000000004"></path><circle cx="253.91" cy="32.32" r="3.92" style="fill:#7d7d7d;stroke:#fff;stroke-miterlimit:10"></circle><path d="M352,139.57h0V88.3h0a3.51,3.51,0,0,1,3.51,3.51v44.24A3.52,3.52,0,0,1,352,139.57Z" style="fill:#263238;stroke:#263238;stroke-miterlimit:10"></path><path d="M352,183.75h0V158.17h0a3.51,3.51,0,0,1,3.51,3.51v18.56A3.51,3.51,0,0,1,352,183.75Z" style="fill:#263238;stroke:#263238;stroke-miterlimit:10"></path><rect x="178.68" y="245.58" width="156.21" height="22.74" rx="11.37" style="fill:#fff;stroke:#263238;stroke-miterlimit:10"></rect><circle cx="192.36" cy="307.56" r="12.9" transform="translate(-63.43 50.33) rotate(-12.82)" style="fill:#fff;stroke:#263238;stroke-miterlimit:10"></circle><circle cx="234.43" cy="307.56" r="12.9" transform="translate(-148.82 255.85) rotate(-45)" style="fill:#fff;stroke:#263238;stroke-miterlimit:10"></circle><circle cx="276.5" cy="307.56" r="12.9" transform="translate(-63.58 72.2) rotate(-13.36)" style="fill:#fff;stroke:#263238;stroke-miterlimit:10"></circle><circle cx="318.57" cy="307.56" r="12.9" transform="translate(-86.92 485.5) rotate(-67.69)" style="fill:#fff;stroke:#263238;stroke-miterlimit:10"></circle><circle cx="192.36" cy="364.42" r="12.9" transform="translate(-76.04 51.75) rotate(-12.82)" style="fill:#fff;stroke:#263238;stroke-miterlimit:10"></circle><circle cx="234.43" cy="364.42" r="12.9" transform="translate(-189.02 272.5) rotate(-45)" style="fill:#fff;stroke:#263238;stroke-miterlimit:10"></circle><circle cx="276.5" cy="364.42" r="12.9" transform="translate(-76.71 73.74) rotate(-13.36)" style="fill:#fff;stroke:#263238;stroke-miterlimit:10"></circle><circle cx="318.57" cy="364.42" r="12.9" transform="translate(-139.52 520.77) rotate(-67.69)" style="fill:#fff;stroke:#263238;stroke-miterlimit:10"></circle><circle cx="256.79" cy="137.26" r="49.08" style="fill:none;stroke:#fff;stroke-miterlimit:10"></circle><path d="M235.76,146.46V128.81a1.58,1.58,0,0,1-.59.45,6.67,6.67,0,0,1-1,.39l-1,.31a4.76,4.76,0,0,1-.56.16v-1.46a8,8,0,0,0,.82-.28,6,6,0,0,0,.94-.49,8.28,8.28,0,0,0,.92-.67,4.5,4.5,0,0,0,.79-.84h1.47v20.08Z" style="fill:#263238"></path><path d="M244.86,146.46V128.81a1.55,1.55,0,0,1-.6.45,6.13,6.13,0,0,1-1,.39l-1,.31a5.4,5.4,0,0,1-.56.16v-1.46c.23-.06.5-.16.82-.28a6,6,0,0,0,.94-.49,8.28,8.28,0,0,0,.92-.67,4.5,4.5,0,0,0,.79-.84h1.46v20.08Z" style="fill:#263238"></path><path d="M251.5,136v-2.66h1.94V136Zm0,8.42v-2.65h1.94v2.65Z" style="fill:#263238"></path><path d="M260.48,146.71a4.92,4.92,0,0,1-2.56-.6,3.48,3.48,0,0,1-1.45-1.69,6.85,6.85,0,0,1-.45-2.59v-.5h1.73v.42a6.24,6.24,0,0,0,.29,1.85,2.32,2.32,0,0,0,.85,1.2,2.72,2.72,0,0,0,1.59.42,2.91,2.91,0,0,0,1.6-.41,2.46,2.46,0,0,0,1-1.35,7.55,7.55,0,0,0,.33-2.45,6.08,6.08,0,0,0-.67-3,2.56,2.56,0,0,0-2.33-1.23h-.49V135h.49a2.71,2.71,0,0,0,2.31-.91,4.83,4.83,0,0,0,.69-2.91,5,5,0,0,0-.58-2.55,2.27,2.27,0,0,0-2.14-1,2.66,2.66,0,0,0-2.2.85,4.42,4.42,0,0,0-.73,2.64v.35H256V131a6.64,6.64,0,0,1,.45-2.57,3.43,3.43,0,0,1,1.5-1.67,5.34,5.34,0,0,1,2.68-.6,4.75,4.75,0,0,1,2.6.65,3.82,3.82,0,0,1,1.5,1.77,6.4,6.4,0,0,1,.49,2.59,5.77,5.77,0,0,1-.79,3.26,3.4,3.4,0,0,1-2.06,1.45,3.38,3.38,0,0,1,1.39.79,4.34,4.34,0,0,1,1.05,1.65,7.47,7.47,0,0,1,.41,2.64,8.85,8.85,0,0,1-.47,3,4,4,0,0,1-1.53,2A4.79,4.79,0,0,1,260.48,146.71Z" style="fill:#263238"></path><path d="M272.5,146.69a4.82,4.82,0,0,1-2.59-.62,3.54,3.54,0,0,1-1.42-1.84,8.51,8.51,0,0,1-.45-2.95h1.81a8.73,8.73,0,0,0,.23,2.11,2.34,2.34,0,0,0,2.5,1.86,2.32,2.32,0,0,0,1.73-.6,3.23,3.23,0,0,0,.82-1.73,14.85,14.85,0,0,0,.22-2.8,12.75,12.75,0,0,0-.26-2.93,2.73,2.73,0,0,0-.86-1.57,2.51,2.51,0,0,0-1.63-.49,2.68,2.68,0,0,0-1.44.42,3.87,3.87,0,0,0-1.16,1.24h-1.51V126.38h7.8l0,1.71H270.1l-.1,7a3.72,3.72,0,0,1,1.2-.94,3.92,3.92,0,0,1,1.87-.4,3.67,3.67,0,0,1,2.39.74,4.14,4.14,0,0,1,1.31,2.12,12.27,12.27,0,0,1,.39,3.31,15.65,15.65,0,0,1-.24,2.9,6.07,6.07,0,0,1-.81,2.13,3.65,3.65,0,0,1-1.44,1.32A4.74,4.74,0,0,1,272.5,146.69Z" style="fill:#263238"></path><rect x="310.04" y="35.77" width="17" height="9.32" style="fill:none;stroke:#263238;stroke-linecap:round;stroke-linejoin:round;stroke-width:0.821067px"></rect><rect x="310.04" y="35.77" width="13.26" height="9.32" style="fill:#263238;stroke:#263238;stroke-linecap:round;stroke-linejoin:round;stroke-width:0.725073px"></rect><rect x="327" y="38.37" width="2.39" height="4.11" style="fill:#263238;stroke:#263238;stroke-linecap:round;stroke-linejoin:round;stroke-width:0.725073px"></rect><rect x="176.61" y="38.66" width="3.12" height="5.34" style="fill:#263238;stroke:#263238;stroke-linecap:round;stroke-linejoin:round;stroke-width:0.8830859999999999px"></rect><rect x="181.51" y="36.78" width="3.12" height="7.22" style="fill:#263238;stroke:#263238;stroke-linecap:round;stroke-linejoin:round;stroke-width:0.8830859999999999px"></rect><rect x="186.41" y="34.56" width="3.12" height="9.44" style="fill:#263238;stroke:#263238;stroke-linecap:round;stroke-linejoin:round;stroke-width:0.8830859999999999px"></rect><path d="M317.39,259.46h0a2.27,2.27,0,0,1-2.27-2.27V250a2.27,2.27,0,0,1,2.27-2.27h0a2.27,2.27,0,0,1,2.27,2.27v7.2A2.27,2.27,0,0,1,317.39,259.46Z" style="fill:#263238"></path><path d="M317.4,261.09a4,4,0,0,1-4-4V253.7a.41.41,0,0,1,.42-.41.41.41,0,0,1,.41.41v3.38a3.19,3.19,0,0,0,6.37,0V253.7a.41.41,0,0,1,.41-.41.41.41,0,0,1,.42.41v3.38A4,4,0,0,1,317.4,261.09Z" style="fill:#263238"></path><path d="M317.4,265.41A.41.41,0,0,1,317,265v-4.32a.42.42,0,1,1,.83,0V265A.41.41,0,0,1,317.4,265.41Z" style="fill:#263238"></path><path d="M320.17,265.63h-5.53a.41.41,0,0,1-.42-.41.42.42,0,0,1,.42-.42h5.53a.42.42,0,0,1,.42.42A.41.41,0,0,1,320.17,265.63Z" style="fill:#263238"></path><path d="M159.66,314.93s.44,2.26.87,2.37,4.65-.11,4.75-1.19-2.16-1.73-2.16-1.73Z" style="fill:#fff;stroke:#263238;stroke-linejoin:round"></path></g></svg>